<svg xmlns="http://www.w3.org/2000/svg" version="1.1" xmlns:xlink="http://www.w3.org/1999/xlink" xmlns:svgjs="http://svgjs.dev/svgjs" width="2000" height="232" viewBox="0 0 2000 232"><g transform="matrix(1,0,0,1,-1.2121212121212466,0.06742554590580596)"><svg viewBox="0 0 396 46" data-background-color="#000000" preserveAspectRatio="xMidYMid meet" height="232" width="2000" xmlns="http://www.w3.org/2000/svg" xmlns:xlink="http://www.w3.org/1999/xlink"><g id="tight-bounds" transform="matrix(1,0,0,1,0.2400000000000091,-0.013368858239942938)"><svg viewBox="0 0 395.52 46.0267377164799" height="46.0267377164799" width="395.52"><g><svg viewBox="0 0 395.52 46.0267377164799" height="46.0267377164799" width="395.52"><g><svg viewBox="0 0 395.52 46.0267377164799" height="46.0267377164799" width="395.52"><g id="textblocktransform"><svg viewBox="0 0 395.52 46.0267377164799" height="46.0267377164799" width="395.52" id="textblock"><g><svg viewBox="0 0 395.52 46.0267377164799" height="46.0267377164799" width="395.52"><g transform="matrix(1,0,0,1,0,0)"><svg width="395.52" viewBox="3 -35.5 311.53 36.26" height="46.0267377164799" data-palette-color="#ffffff"><path d="M37.99-25L37.99 0 31.01 0 31.01-25Q31.01-25.73 30.73-26.37 30.44-27 29.97-27.48 29.49-27.95 28.86-28.22 28.22-28.49 27.49-28.49L27.49-28.49Q26.76-28.49 26.12-28.22 25.49-27.95 25.01-27.48 24.54-27 24.27-26.37 24-25.73 24-25L24-25 24 0 16.99 0 16.99-25Q16.99-25.73 16.72-26.37 16.46-27 15.98-27.48 15.5-27.95 14.87-28.22 14.23-28.49 13.5-28.49L13.5-28.49Q12.77-28.49 12.13-28.22 11.5-27.95 11.02-27.48 10.55-27 10.28-26.37 10.01-25.73 10.01-25L10.01-25 10.01 0 3 0 3-25Q3-27.17 3.82-29.09 4.64-31.01 6.07-32.43 7.5-33.86 9.41-34.68 11.33-35.5 13.5-35.5L13.5-35.5Q15.45-35.5 17.26-34.8 19.07-34.11 20.51-32.79L20.51-32.79Q21.95-34.11 23.74-34.8 25.54-35.5 27.49-35.5L27.49-35.5Q29.66-35.5 31.58-34.68 33.5-33.86 34.92-32.43 36.35-31.01 37.17-29.09 37.99-27.17 37.99-25L37.99-25ZM68.23-7.01L68.23 0 44.24 0 44.24-35.01 68.23-35.01 68.23-28 51.24-28 51.24-21 62.74-21 62.74-13.99 51.24-13.99 51.24-7.01 68.23-7.01ZM97.65-7.01L97.65 0 73.14 0 73.14-35.01 80.15-35.01 80.15-7.01 97.65-7.01ZM134.39-17.36L134.39-17.36Q134.39-14.87 133.74-12.56 133.1-10.25 131.93-8.24 130.75-6.23 129.09-4.57 127.43-2.91 125.43-1.72 123.43-0.54 121.11 0.11 118.79 0.76 116.3 0.76L116.3 0.76Q113.81 0.76 111.5 0.11 109.2-0.54 107.18-1.72 105.17-2.91 103.51-4.57 101.85-6.23 100.66-8.24 99.48-10.25 98.83-12.56 98.19-14.87 98.19-17.36L98.19-17.36Q98.19-19.85 98.83-22.17 99.48-24.49 100.66-26.49 101.85-28.49 103.51-30.15 105.17-31.81 107.18-32.98 109.2-34.16 111.5-34.8 113.81-35.45 116.3-35.45L116.3-35.45Q118.79-35.45 121.11-34.8 123.43-34.16 125.43-32.98 127.43-31.81 129.09-30.15 130.75-28.49 131.93-26.49 133.1-24.49 133.74-22.17 134.39-19.85 134.39-17.36ZM127.43-17.36L127.43-17.36Q127.43-19.65 126.56-21.69 125.68-23.73 124.17-25.23 122.67-26.73 120.63-27.61 118.6-28.49 116.3-28.49L116.3-28.49Q113.98-28.49 111.96-27.61 109.93-26.73 108.42-25.23 106.9-23.73 106.02-21.69 105.14-19.65 105.14-17.36L105.14-17.36Q105.14-15.06 106.02-13.05 106.9-11.04 108.42-9.52 109.93-8.01 111.96-7.13 113.98-6.25 116.3-6.25L116.3-6.25Q118.6-6.25 120.63-7.13 122.67-8.01 124.17-9.52 125.68-11.04 126.56-13.05 127.43-15.06 127.43-17.36ZM167.03-17.5L167.03-17.5Q167.03-15.09 166.41-12.85 165.79-10.62 164.64-8.68 163.49-6.74 161.9-5.14 160.32-3.54 158.36-2.39 156.41-1.25 154.18-0.62 151.94 0 149.53 0L149.53 0 138.98 0 138.98-35.01 149.53-35.01Q151.94-35.01 154.18-34.39 156.41-33.76 158.36-32.62 160.32-31.47 161.9-29.87 163.49-28.27 164.64-26.33 165.79-24.39 166.41-22.16 167.03-19.92 167.03-17.5ZM160.02-17.5L160.02-17.5Q160.02-19.68 159.21-21.58 158.39-23.49 156.96-24.91 155.53-26.34 153.62-27.17 151.7-28 149.53-28L149.53-28 146.03-28 146.03-7.01 149.53-7.01Q151.7-7.01 153.62-7.82 155.53-8.64 156.96-10.07 158.39-11.5 159.21-13.42 160.02-15.33 160.02-17.5ZM187.41-10.96L187.41 0 180.43 0 180.43-10.96Q178.11-11.55 176.17-12.84 174.23-14.14 172.84-15.93 171.45-17.72 170.68-19.91 169.91-22.09 169.91-24.51L169.91-24.51 169.91-35.01 176.92-35.01 176.92-24.51Q176.92-23.07 177.47-21.79 178.01-20.51 178.97-19.56 179.92-18.6 181.2-18.05 182.48-17.5 183.92-17.5L183.92-17.5Q185.36-17.5 186.65-18.05 187.93-18.6 188.88-19.56 189.83-20.51 190.38-21.79 190.93-23.07 190.93-24.51L190.93-24.51 190.93-35.01 197.91-35.01 197.91-24.51Q197.91-22.09 197.14-19.91 196.37-17.72 194.98-15.93 193.59-14.14 191.66-12.84 189.73-11.55 187.41-10.96L187.41-10.96ZM209.68-13.99L209.68 0 202.67 0 202.67-35.01 227.18-35.01 227.18-28 209.68-28 209.68-21 220.18-21 220.18-13.99 209.68-13.99ZM254.77-7.01L254.77 0 230.77 0 230.77-35.01 254.77-35.01 254.77-28 237.78-28 237.78-21 249.27-21 249.27-13.99 237.78-13.99 237.78-7.01 254.77-7.01ZM257.23-24.51L257.23-24.51Q257.23-26.68 258.06-28.59 258.89-30.49 260.32-31.92 261.75-33.35 263.65-34.18 265.56-35.01 267.73-35.01L267.73-35.01 283.79-35.01 283.79-28 267.73-28Q267-28 266.36-27.73 265.73-27.47 265.25-26.99 264.77-26.51 264.51-25.88 264.24-25.24 264.24-24.51L264.24-24.51Q264.24-23.78 264.51-23.13 264.77-22.49 265.25-22.01 265.73-21.53 266.36-21.26 267-21 267.73-21L267.73-21 274.74-21Q276.91-21 278.83-20.18 280.74-19.36 282.17-17.93 283.6-16.5 284.42-14.59 285.23-12.67 285.23-10.5L285.23-10.5Q285.23-8.33 284.42-6.42 283.6-4.52 282.17-3.09 280.74-1.66 278.83-0.83 276.91 0 274.74 0L274.74 0 259.18 0 259.18-7.01 274.74-7.01Q275.47-7.01 276.1-7.28 276.74-7.54 277.21-8.02 277.69-8.5 277.96-9.13 278.23-9.77 278.23-10.5L278.23-10.5Q278.23-11.23 277.96-11.87 277.69-12.5 277.21-12.98 276.74-13.45 276.1-13.72 275.47-13.99 274.74-13.99L274.74-13.99 267.73-13.99Q265.56-13.99 263.65-14.82 261.75-15.65 260.32-17.08 258.89-18.51 258.06-20.42 257.23-22.34 257.23-24.51ZM304.03-28L304.03 0 297.05 0 297.05-28 286.53-28 286.53-35.01 314.53-35.01 314.53-28 304.03-28Z" opacity="1" transform="matrix(1,0,0,1,0,0)" fill="#ffffff" class="wordmark-text-0" data-fill-palette-color="primary" id="text-0"></path></svg></g></svg></g></svg></g></svg></g><g></g></svg></g><defs></defs></svg><rect width="395.52" height="46.0267377164799" fill="none" stroke="none" visibility="hidden"></rect></g></svg></g></svg>